<?xml version="1.0" encoding="utf-8"?>
<!-- Generator: Adobe Illustrator 28.0.0, SVG Export Plug-In . SVG Version: 6.00 Build 0)  -->
<svg version="1.1" id="圖層_1" xmlns="//www.w3.org/2000/svg" xmlns:xlink="//www.w3.org/1999/xlink" x="0px" y="0px"
	 viewBox="0 0 256 256" style="enable-background:new 0 0 256 256;" xml:space="preserve">
<g>
	<path d="M94,37.4l0.1,0.1c1.1,0.8,2.4,1.2,3.7,1.2c1.1,0,2.1-0.3,3.1-0.8c2.2-1.1,3.5-3.2,3.5-5.6c0-1.8-2.6-11.5-2.6-11.6
		c-2.2-8.3-3-10.5-4.5-11.7c-2.2-1.9-5-2.1-7.4-0.6c-4,2.4-3.2,5.7-0.4,16.5C92.4,36.1,93.4,36.9,94,37.4z"/>
	<path d="M122.9,36.5c1.3,1.3,3,2.1,4.8,2.1l0.1,0c1.7,0,3.2-0.7,4.2-1.9c1.7-1.9,6.5-20.5,6.5-23.1c0-2.1-1.3-4.1-3.5-5.2
		c-2.3-1.2-4.9-1.1-6.9,0.3c-1.1,0.8-2,2.1-4.7,12.6c-1,4-2.8,10.9-2.8,11.6C120.7,34.4,122.2,35.9,122.9,36.5z"/>
	<path d="M67.3,56.3c6.5,2.8,8.9,3.9,10.7,3.9c1,0,1.8-0.3,2.6-0.9c3.1-2,4.1-5.5,2.6-8.5c-1-1.8-3-3-11.1-6.6
		c-9-4.1-13.6-6.1-16.8-2c-1,1.3-2.1,3.1-1.6,5.2C54.6,50.4,57.9,52.3,67.3,56.3z"/>
	<path d="M145.4,59.6c0.7,0.3,1.3,0.5,2,0.5c1.8,0,4.2-1,10.8-3.7c12.3-5.3,13.3-5.8,13.3-10.1c0-3.9-2.4-6.5-6.2-6.5l-0.5,0.1
		c-1.3,0.3-6.5,2.3-11.3,4.4c-9.2,4.1-13.8,6.1-11.4,11.9C142.6,57.3,143.9,59,145.4,59.6z"/>
	<path d="M206.9,152.2L206.9,152.2c-0.7-12.4-2.2-19.2-5.8-25.7c-3.4-6.4-8.1-9.4-16.9-10.6c-2.5-0.3-2.5-0.3-6.1-3.7
		c-8.3-8.1-17.7-10.7-28.6-7.8c-0.9,0.2-0.9,0.2-2.1-0.7c-3.8-3-7.1-4.1-11.2-3.7l-0.7,0c0-1.2-0.1-4.1-0.2-7.3l0-0.6
		c-0.1-2.7-0.1-5.9-0.2-9.1c-0.3-15.8-0.3-16.1-2.1-20c-2-4.5-6-8.6-9.8-10.2c-3.4-1.5-11.3-2-15.9-1c-4.7,1.1-8.4,3.7-10.8,7.6
		c-3.7,5.7-3.8,7-3.8,44.6v30.3c-6.8-1.5-12.6-2.3-16.8-2.3c-9.9,0-15.6,1.9-20.8,7.1c-4.3,4.3-6.1,9-6.2,15.7
		c-0.1,4.4,0.3,5.8,1.9,9.2c2.8,5.9,7.4,10.3,14.7,13.8c2.9,1.4,7.4,3.5,9.7,4.7c10.4,5.2,19.1,15.3,20.7,24.1
		c0.4,2.6,4.8,17.3,6.2,21.8l6,19.9l39.5,0.2l39.8,0.1l3.5-22.6c1.7-11.1,3.5-21.7,3.8-23.2c0.8-3.9,3.9-12.3,6.3-18
		C205.7,174.6,207.5,163.9,206.9,152.2z M69.2,146.3c6.8-1.4,14.6-0.5,26,3.1c3.4,1.1,7.6,2.4,8.4,2.4c2.5,0,2.6-1.7,2.6-5.5
		c0-2,0.1-4.9,0.1-8.4c0-7,0.1-16.5,0.1-27.7c0-38.3,0.2-42.3,1.8-43.9c2.1-1.5,7.5-1.9,9.9-0.7c0.8,0.4,1.6,1.2,2,2.1
		c0.8,1.6,0.9,3.5,1.3,23.2c0.6,23,0.6,23,1.4,23.9c1,1,2.1,1.1,6.6-0.4c2.3-0.6,4.7-1,5-1c1.5,0.1,4.9,1.4,7.3,3.8l3.3,3.3l5.5-2.1
		c2.3-0.9,4.3-1.3,6.9-1.3c4.8-0.1,7.5,1.3,12.6,6.5l5,5.2l5.4,0.5c2.7,0.2,4.9,0.7,5.3,0.9l0.1,0.1c2.5,1.1,6.8,5.9,6.8,26.2
		c0,10-0.7,13.9-3.6,20.9c-6.7,16-7.7,19.7-10.9,39.8c-1.1,7.2-2.3,14.6-2.6,16.2l-0.2,1.2h-57.1l-3.9-12.9
		c-2.4-8.2-4.7-16.2-5-18.3c-3-14.4-16.6-29.3-32.5-35.6c-9.9-4-13.4-7-14.4-12.1C62,151.8,65.2,147.2,69.2,146.3z"/>
	<path d="M69.2,78.7c-2.3,0.8-9.7,3.7-10.9,4.6c-1.8,1.5-2.4,4.1-1.4,6.7c1,2.7,3.2,4.5,5.6,4.5c1.6,0,8.8-2.6,11.3-3.6
		c9.5-3.5,14.4-5.6,13.1-10.6c-0.8-3.2-3.2-5.3-6-5.2C80.3,75.1,78.9,75,69.2,78.7z"/>
	<path d="M140.5,86.1l0.2-0.1c4.1,2.7,20.5,8.5,22.6,8.5c2.9,0,6.1-3.5,6.1-6.6c0-1.1-0.4-2.7-1.2-3.7c-1.7-2.4-21.6-9.2-23.3-9.2
		c-1.7,0-3.5,1-4.6,2.4c-2,2.6-2.2,5.7-0.4,8L140.5,86.1z"/>
</g>
</svg>
