<?xml version="1.0" encoding="utf-8"?>
<!-- Svg Vector Icons : //www.onlinewebfonts.com/icon -->
<!DOCTYPE svg PUBLIC "-//W3C//DTD SVG 1.1//EN" "//www.w3.org/Graphics/SVG/1.1/DTD/svg11.dtd">
<svg version="1.1" xmlns="//www.w3.org/2000/svg" xmlns:xlink="//www.w3.org/1999/xlink" x="0px" y="0px" viewBox="0 0 256 256" enable-background="new 0 0 256 256" xml:space="preserve">
<metadata> Svg Vector Icons : //www.onlinewebfonts.com/icon </metadata>
<g><g><path fill="#000000" d="M246,128c0-10.8-7.9-18.7-18.7-19.7l-31.5-62.9c1-2,1-3.9,1-5.9c0-10.8-8.9-19.7-19.7-19.7c-6.9,0-13.8,3.9-16.7,9.8H95.6c-2.9-5.9-9.8-9.8-16.7-9.8c-10.8,0-19.7,8.9-19.7,19.7c0,2,0,3.9,1,5.9l-31.5,62.9c-9.8,1-18.7,8.9-18.7,19.7c0,10.8,7.9,18.7,18.7,19.7l31.5,62.9c-1,2-1,3.9-1,5.9c0,10.8,8.9,19.7,19.7,19.7c6.9,0,13.8-3.9,16.7-9.8h64.9c3,5.9,9.8,9.8,16.7,9.8c10.8,0,19.7-8.8,19.7-19.7c0-2,0-3.9-1-5.9l31.5-62.9C238.1,146.7,246,138.8,246,128z M177.2,196.8c-6.9,0-13.8,3.9-16.7,9.8H95.6c-2.9-5.9-9.8-9.8-16.7-9.8c-1,0-2,0-3.9,0l-29.5-58c3-3,3.9-6.9,3.9-10.8c0-3.9-1-7.9-2.9-10.8l29.5-58c1,0,2,0,2.9,0c6.9,0,13.8-3.9,16.7-9.8h64.9c3,5.9,9.8,9.8,16.7,9.8c1,0,2,0,3.9,0l29.5,58c-3,3-3.9,6.9-3.9,10.8c0,3.9,1,7.9,3,10.8l-29.5,58C179.1,196.8,178.2,196.8,177.2,196.8z"/></g></g>
</svg>