<?xml version="1.0" encoding="utf-8"?>
<!-- Svg Vector Icons : //www.onlinewebfonts.com/icon -->
<!DOCTYPE svg PUBLIC "-//W3C//DTD SVG 1.1//EN" "//www.w3.org/Graphics/SVG/1.1/DTD/svg11.dtd">
<svg version="1.1" xmlns="//www.w3.org/2000/svg" xmlns:xlink="//www.w3.org/1999/xlink" x="0px" y="0px" viewBox="0 0 256 256" enable-background="new 0 0 256 256" xml:space="preserve">
<metadata> Svg Vector Icons : //www.onlinewebfonts.com/icon </metadata>
<g><g><g><path fill="#000000" d="M32.5,11.7l-2.3,1.8v70.7c0,78-0.2,75.3,6.1,88.6c9.8,20.5,33.2,42.1,66.5,61.3c14.4,8.4,22,11.9,25.2,11.9c5.1,0,31.9-15,50.3-28.1c10.4-7.5,28.6-25.2,34.3-33.4c6-8.8,8-12.7,10.8-21.5l2.3-7.1V84.7V13.5l-2.3-1.8c-3.4-2.7-7-2.3-13.2,2c-22.2,15.2-51.9,15-74.6-0.4c-6.5-4.4-9.1-4.3-16.1,0.4c-22.1,15.1-51.7,15.1-73.9-0.1C39.5,9.4,35.9,9,32.5,11.7z M135.6,30.1c4.3,2.4,11,5.1,14.5,6.1c17.3,5.2,38.7,4,54.8-3.2c3-1.3,5.6-2.4,5.8-2.4c0.2,0,0.4,28,0.4,62v62.1l-2.3,6.3c-7.4,20.8-35.9,46.6-73.2,66l-7.8,4.1l-6.2-3.2c-39.3-20.9-67-45.7-74.4-66.9l-2.3-6.3V92.7c0-34.1,0.2-62,0.4-62c0.2,0,2.6,1,5.6,2.3c21.9,9.7,49.4,8.5,70.1-3.1c3.7-2.1,6.7-3.8,6.7-3.8C127.7,26,131.3,27.9,135.6,30.1z"/><path fill="#000000" d="M123.8,62c-0.9,0.6-4.9,7.5-8.7,15.5c-6.6,13.7-7.2,14.4-10.1,15c-1.6,0.3-9,1.3-16.2,2.4c-11.8,1.7-13.4,2.2-15.3,4.3c-4.2,4.6-3.3,6.4,9.6,19c8.3,8,11.8,12.1,11.8,13.6c0,1.1-1.1,8.7-2.6,16.6L89.9,163l1.9,2.5c3.4,4.5,6.3,4,22-4.3l14.2-7.4l14.2,7.4c15.7,8.2,18.6,8.8,22,4.3l1.9-2.5l-2.8-16.4l-2.8-16.3l12.2-11.8c13.2-12.8,14.1-14.6,10-19.3c-2-2.2-3.6-2.6-15.4-4.3c-7.3-1-14.6-2.1-16.2-2.4c-2.9-0.6-3.5-1.3-10.1-15c-4.2-8.7-7.7-14.9-8.9-15.6C129.5,60.6,126.2,60.6,123.8,62z M132.9,94.4c2.5,4.9,5.5,9.5,6.6,10.3c1.2,0.7,6,1.8,10.7,2.5c4.7,0.6,9.1,1.2,9.8,1.5c0.9,0.3-1,2.9-6.2,8.2c-4.2,4.3-7.8,8.4-8,9.2c-0.3,0.9,0.2,5.9,1.1,11.3c0.9,5.5,1.5,10.1,1.3,10.3c-0.1,0.2-4.3-1.9-9.3-4.5c-4.9-2.6-9.8-4.8-10.9-4.8c-1,0-5.9,2.2-10.9,4.8c-5,2.6-9.3,4.6-9.4,4.4c-0.2-0.2,0.4-4.8,1.3-10.2c1-5.4,1.6-10.4,1.3-11.2c-0.3-0.9-4-5-8.1-9.3c-5.2-5.3-7.2-7.9-6.2-8.2c0.8-0.2,5.2-0.9,9.8-1.6c4.7-0.6,9.4-1.7,10.7-2.5c1.1-0.7,4.2-5.3,6.6-10.2c2.4-4.9,4.6-9,4.9-9C128.3,85.5,130.5,89.5,132.9,94.4z"/></g></g></g>
</svg>